<mxfile modified="2024-04-03T04:20:25.382Z" host="app.diagrams.net" agent="Mozilla/5.0 (Windows NT 10.0; Win64; x64) AppleWebKit/537.36 (KHTML, like Gecko) Chrome/123.0.0.0 Safari/537.36" etag="8nBSq9f8vFyZ2LHfpqMJ" version="24.2.1" type="device">
  <diagram id="WI9T0HZ2pTsCkuznbFz-" name="Page-1">
    <mxGraphModel dx="1430" dy="763" grid="1" gridSize="10" guides="1" tooltips="1" connect="1" arrows="1" fold="1" page="1" pageScale="1" pageWidth="1169" pageHeight="827" math="0" shadow="0">
      <root>
        <mxCell id="0" />
        <mxCell id="1" parent="0" />
        <mxCell id="kaGzO5QIttnKLizIjbSe-24" value="" style="edgeStyle=orthogonalEdgeStyle;rounded=0;orthogonalLoop=1;jettySize=auto;html=1;" edge="1" parent="1" source="kaGzO5QIttnKLizIjbSe-11" target="kaGzO5QIttnKLizIjbSe-25">
          <mxGeometry relative="1" as="geometry">
            <mxPoint x="483" y="409" as="sourcePoint" />
            <mxPoint x="483" y="580" as="targetPoint" />
          </mxGeometry>
        </mxCell>
        <mxCell id="kaGzO5QIttnKLizIjbSe-14" value="" style="edgeStyle=orthogonalEdgeStyle;rounded=0;orthogonalLoop=1;jettySize=auto;html=1;entryX=0;entryY=0.5;entryDx=0;entryDy=0;" edge="1" parent="1" source="kaGzO5QIttnKLizIjbSe-7" target="kaGzO5QIttnKLizIjbSe-9">
          <mxGeometry relative="1" as="geometry">
            <mxPoint x="210" y="235" as="targetPoint" />
          </mxGeometry>
        </mxCell>
        <mxCell id="kaGzO5QIttnKLizIjbSe-7" value="My Org" style="image;sketch=0;aspect=fixed;html=1;points=[];align=center;fontSize=12;image=img/lib/mscae/Azure_DevOps.svg;" vertex="1" parent="1">
          <mxGeometry x="190" y="359" width="50" height="50" as="geometry" />
        </mxCell>
        <mxCell id="kaGzO5QIttnKLizIjbSe-12" style="edgeStyle=orthogonalEdgeStyle;rounded=0;orthogonalLoop=1;jettySize=auto;html=1;exitX=1;exitY=0.5;exitDx=0;exitDy=0;" edge="1" parent="1" source="kaGzO5QIttnKLizIjbSe-9" target="kaGzO5QIttnKLizIjbSe-11">
          <mxGeometry relative="1" as="geometry" />
        </mxCell>
        <mxCell id="kaGzO5QIttnKLizIjbSe-9" value="My Project" style="image;aspect=fixed;perimeter=ellipsePerimeter;html=1;align=center;shadow=0;dashed=0;fontColor=#05080D;labelBackgroundColor=default;fontSize=12;spacingTop=3;image=img/lib/ibm/devops/devops.svg;" vertex="1" parent="1">
          <mxGeometry x="290" y="354" width="60" height="60" as="geometry" />
        </mxCell>
        <mxCell id="kaGzO5QIttnKLizIjbSe-10" value="uat" style="image;sketch=0;aspect=fixed;html=1;points=[];align=center;fontSize=12;image=img/lib/mscae/Azure_Artifacts.svg;" vertex="1" parent="1">
          <mxGeometry x="341" y="600" width="50" height="50" as="geometry" />
        </mxCell>
        <mxCell id="kaGzO5QIttnKLizIjbSe-16" style="edgeStyle=orthogonalEdgeStyle;rounded=0;orthogonalLoop=1;jettySize=auto;html=1;entryX=0.5;entryY=-0.1;entryDx=0;entryDy=0;entryPerimeter=0;exitX=0.49;exitY=0.98;exitDx=0;exitDy=0;exitPerimeter=0;" edge="1" parent="1" source="kaGzO5QIttnKLizIjbSe-25" target="kaGzO5QIttnKLizIjbSe-28">
          <mxGeometry relative="1" as="geometry">
            <mxPoint x="430" y="560" as="sourcePoint" />
            <mxPoint x="480" y="560" as="targetPoint" />
          </mxGeometry>
        </mxCell>
        <mxCell id="kaGzO5QIttnKLizIjbSe-11" value="My Repo" style="image;sketch=0;aspect=fixed;html=1;points=[];align=center;fontSize=12;image=img/lib/mscae/Azure_Repos.svg;" vertex="1" parent="1">
          <mxGeometry x="400" y="359" width="45" height="50" as="geometry" />
        </mxCell>
        <mxCell id="kaGzO5QIttnKLizIjbSe-19" value="Nuget" style="image;sketch=0;aspect=fixed;html=1;points=[];align=center;fontSize=12;image=img/lib/mscae/Azure_Artifacts.svg;" vertex="1" parent="1">
          <mxGeometry x="120" y="450" width="50" height="50" as="geometry" />
        </mxCell>
        <mxCell id="kaGzO5QIttnKLizIjbSe-20" value="Python" style="image;sketch=0;aspect=fixed;html=1;points=[];align=center;fontSize=12;image=img/lib/mscae/Azure_Artifacts.svg;" vertex="1" parent="1">
          <mxGeometry x="120" y="527" width="50" height="50" as="geometry" />
        </mxCell>
        <mxCell id="kaGzO5QIttnKLizIjbSe-25" value="My Build" style="image;sketch=0;aspect=fixed;html=1;points=[];align=center;fontSize=12;image=img/lib/mscae/Azure_Pipelines.svg;" vertex="1" parent="1">
          <mxGeometry x="397.5" y="480" width="50" height="50" as="geometry" />
        </mxCell>
        <mxCell id="kaGzO5QIttnKLizIjbSe-27" value="prod" style="image;sketch=0;aspect=fixed;html=1;points=[];align=center;fontSize=12;image=img/lib/mscae/Azure_Artifacts.svg;" vertex="1" parent="1">
          <mxGeometry x="398.5" y="600" width="50" height="50" as="geometry" />
        </mxCell>
        <mxCell id="kaGzO5QIttnKLizIjbSe-28" value="dev" style="image;sketch=0;aspect=fixed;html=1;points=[];align=center;fontSize=12;image=img/lib/mscae/Azure_Artifacts.svg;" vertex="1" parent="1">
          <mxGeometry x="221" y="600" width="50" height="50" as="geometry" />
        </mxCell>
        <mxCell id="kaGzO5QIttnKLizIjbSe-29" value="qa" style="image;sketch=0;aspect=fixed;html=1;points=[];align=center;fontSize=12;image=img/lib/mscae/Azure_Artifacts.svg;" vertex="1" parent="1">
          <mxGeometry x="281" y="600" width="50" height="50" as="geometry" />
        </mxCell>
        <mxCell id="kaGzO5QIttnKLizIjbSe-39" style="edgeStyle=orthogonalEdgeStyle;rounded=0;orthogonalLoop=1;jettySize=auto;html=1;strokeColor=default;shadow=0;dashed=1;" edge="1" parent="1">
          <mxGeometry relative="1" as="geometry">
            <mxPoint x="390" y="506" as="sourcePoint" />
            <mxPoint x="170" y="480" as="targetPoint" />
            <Array as="points">
              <mxPoint x="190" y="506" />
              <mxPoint x="190" y="480" />
            </Array>
          </mxGeometry>
        </mxCell>
        <mxCell id="kaGzO5QIttnKLizIjbSe-40" style="edgeStyle=orthogonalEdgeStyle;rounded=0;orthogonalLoop=1;jettySize=auto;html=1;strokeColor=default;shadow=0;dashed=1;" edge="1" parent="1">
          <mxGeometry relative="1" as="geometry">
            <mxPoint x="391" y="512" as="sourcePoint" />
            <mxPoint x="170" y="557" as="targetPoint" />
            <Array as="points">
              <mxPoint x="190" y="512" />
              <mxPoint x="190" y="557" />
            </Array>
          </mxGeometry>
        </mxCell>
        <mxCell id="kaGzO5QIttnKLizIjbSe-44" value="Project Scoped Feeds" style="text;strokeColor=#9673a6;align=center;fillColor=#e1d5e7;html=1;verticalAlign=middle;whiteSpace=wrap;rounded=0;" vertex="1" parent="1">
          <mxGeometry x="229" y="680" width="210" height="30" as="geometry" />
        </mxCell>
        <mxCell id="kaGzO5QIttnKLizIjbSe-45" value="Org Scoped Feeds" style="text;strokeColor=#b85450;align=center;fillColor=#f8cecc;html=1;verticalAlign=middle;whiteSpace=wrap;rounded=0;" vertex="1" parent="1">
          <mxGeometry x="50" y="440" width="50" height="150" as="geometry" />
        </mxCell>
      </root>
    </mxGraphModel>
  </diagram>
</mxfile>
